<svg id="Layer_1" data-name="Layer 1" xmlns="http://www.w3.org/2000/svg" viewBox="0 0 240.41 61.59"><defs><style>.cls-1{fill:#fff;}</style></defs><title>uOttawa_HOR_WHITE_2019</title><path class="cls-1" d="M247.52,384.77a36.31,36.31,0,0,1-.22-4.54,9,9,0,0,1-7.86,4.77,5.89,5.89,0,0,1-5.87-3.71c-.44-1.19-.62-3-.62-6.84v-7.29c0-2.29-.17-3.22-.66-3.62-.27-.26-.66-.35-1.5-.39H230v-1l6.85-.44c-.22,4.1-.27,5.16-.27,8.21v3.84c0,4.45.09,5.65.62,7.19a3.44,3.44,0,0,0,3.58,2.47c2.42,0,4.59-1.59,5.74-4.28.66-1.5.79-2.47.79-5.21v-6.8c0-2.34-.13-3.18-.66-3.57a2.2,2.2,0,0,0-1.5-.44h-.8v-1l6.84-.44C251.05,365,251,368,251,370v8.34c0,4.41.4,5.21,2.69,5.21H254v1Z" transform="translate(-160 -329.71)"/><path class="cls-1" d="M265.09,356.88c2.65-3.31,6.49-5,11.26-5s8.56,1.67,11.25,5a18.12,18.12,0,0,1,3.66,11.57A17.79,17.79,0,0,1,287.6,380c-2.74,3.4-6.44,5.08-11.25,5.08s-8.66-1.77-11.26-5.08a20,20,0,0,1,0-23.08ZM268.27,379a9.18,9.18,0,0,0,16.15,0,24.77,24.77,0,0,0,0-21.19,8.77,8.77,0,0,0-8.07-4.81,8.86,8.86,0,0,0-8.08,4.81,24.77,24.77,0,0,0,0,21.19Z" transform="translate(-160 -329.71)"/><path class="cls-1" d="M301.29,378.2c0,2.6.12,3.75.57,4.37a2.45,2.45,0,0,0,2.16.93,5.19,5.19,0,0,0,2.78-.8l.4,1.15a9.41,9.41,0,0,1-4.46,1.1c-2.16,0-3.8-.75-4.55-2.16-.48-.88-.61-1.85-.61-5.12v-14.3H294.8v-1c2.6-.22,3.92-1.94,4.59-6.09l2-.58c-.08,1.9-.12,3.58-.12,6.5h5.29v1.19h-5.29Z" transform="translate(-160 -329.71)"/><path class="cls-1" d="M315.84,378.2c0,2.6.13,3.75.57,4.37a2.45,2.45,0,0,0,2.16.93,5.19,5.19,0,0,0,2.78-.8l.4,1.15a9.34,9.34,0,0,1-4.45,1.1c-2.17,0-3.8-.75-4.55-2.16-.49-.88-.62-1.85-.62-5.12v-14.3h-2.78v-1c2.6-.22,3.93-1.94,4.59-6.09l2-.58c-.09,1.9-.13,3.58-.13,6.5h5.3v1.19h-5.3Z" transform="translate(-160 -329.71)"/><path class="cls-1" d="M345.33,384.38a38.59,38.59,0,0,1-4.55.44c-1.32,0-1.68-.71-1.86-3.66a11.19,11.19,0,0,1-2.16,1.89A8.7,8.7,0,0,1,331,385a6.72,6.72,0,0,1-4.5-1.36,6.37,6.37,0,0,1-1.94-4.68c0-3.49,2.21-5.74,6.49-6.71a48.2,48.2,0,0,1,7.85-1.06v-2.78a9,9,0,0,0-.61-4c-.58-1.15-1.81-1.72-3.62-1.72-2.91,0-4.42,1.32-4.59,4.06-.05.93-.14,1.23-.49,1.5a2.86,2.86,0,0,1-1.55.35c-1.49,0-2.16-.4-2.16-1.32,0-1.59,1.15-3.18,3-4.24a13.25,13.25,0,0,1,6.45-1.41c2.82,0,4.85.66,5.92,1.94.88,1.1,1.28,2.56,1.28,5,0,.13,0,.13-.09,4.46l0,4.19,0,2a10.21,10.21,0,0,0,.48,3.8c.27.35.79.48,2.48.48Zm-6.41-12.23c-3.92.35-5.65.71-7.41,1.59a5.21,5.21,0,0,0-3,5c0,2.78,1.5,4.68,3.71,4.68a6.78,6.78,0,0,0,5.65-3.22c.7-1.23,1-3.09,1-6Z" transform="translate(-160 -329.71)"/><path class="cls-1" d="M356.36,384.64h-2.29l-5.48-18.32c-.75-2.51-1.28-3-3.44-3.17v-1H355v1c-2.12.08-3,.53-3,1.63a8.32,8.32,0,0,0,.4,1.94l4,13.86,5.83-17.83H364l5.6,17.83,3.84-13A8.87,8.87,0,0,0,374,365a1.64,1.64,0,0,0-1.23-1.59,7.11,7.11,0,0,0-2-.3v-1h8.65v1c-2.43.13-3.26,1-4.32,4.37l-5.34,17.12h-2.25L362,367.69Z" transform="translate(-160 -329.71)"/><path class="cls-1" d="M400.41,384.38a38.27,38.27,0,0,1-4.54.44c-1.33,0-1.68-.71-1.86-3.66a11.19,11.19,0,0,1-2.16,1.89,8.7,8.7,0,0,1-5.74,1.9,6.72,6.72,0,0,1-4.5-1.36,6.37,6.37,0,0,1-1.94-4.68c0-3.49,2.2-5.74,6.49-6.71a48.2,48.2,0,0,1,7.85-1.06v-2.78a8.78,8.78,0,0,0-.62-4c-.57-1.15-1.8-1.72-3.61-1.72-2.92,0-4.42,1.32-4.6,4.06,0,.93-.13,1.23-.48,1.5a2.86,2.86,0,0,1-1.55.35c-1.5,0-2.16-.4-2.16-1.32,0-1.59,1.15-3.18,3-4.24a13.25,13.25,0,0,1,6.45-1.41c2.82,0,4.86.66,5.92,1.94.87,1.1,1.27,2.56,1.27,5,0,.13,0,.13-.09,4.46l0,4.19,0,2A9.92,9.92,0,0,0,398,383c.26.35.79.48,2.46.48ZM394,372.15c-3.92.35-5.65.71-7.41,1.59a5.19,5.19,0,0,0-3,5c0,2.78,1.5,4.68,3.71,4.68a6.77,6.77,0,0,0,5.65-3.22c.71-1.23,1-3.09,1-6Z" transform="translate(-160 -329.71)"/><path class="cls-1" d="M173.14,336.8H166.5v3.48H160v51h53.64v-51h-6.5V336.8H200.5c-2.82-4.57-7.63-7.09-13.68-7.09S176,332.23,173.14,336.8Zm.78,2.85h.85l.4-.74c2.85-5.25,7.91-6.35,11.65-6.35s8.8,1.1,11.65,6.35l.4.74h5.42v3.49h6.5v45.3H162.85v-45.3h6.5v-3.49Z" transform="translate(-160 -329.71)"/><path class="cls-1" d="M186.82,381.58" transform="translate(-160 -329.71)"/><path class="cls-1" d="M186.82,384.33" transform="translate(-160 -329.71)"/><path class="cls-1" d="M186.34,346.34l-21,7.55,1,2.68,20.51-7.37,20.51,7.37,1-2.68-21.47-7.72Z" transform="translate(-160 -329.71)"/><path class="cls-1" d="M204.91,376.38l-.4-16a.88.88,0,0,0,.42.11.89.89,0,0,0,.89-.89.91.91,0,0,0-.25-.62h.71v-1.57H167.36V359h.71a.88.88,0,0,0-.26.62.89.89,0,0,0,.9.89,1,1,0,0,0,.4-.1l-.39,16h-1.48V379h39.15v-2.61Zm-28,0h-4.5l-.39-16a.92.92,0,0,0,.41.1.88.88,0,0,0,.88-.89A.87.87,0,0,0,173,359h3.19a.91.91,0,0,0-.25.62.89.89,0,0,0,.89.89.91.91,0,0,0,.4-.1Zm8.14,0h-4.5l-.39-16a.91.91,0,0,0,.4.1.89.89,0,0,0,.89-.89.91.91,0,0,0-.25-.62h3.2a.91.91,0,0,0-.25.62.89.89,0,0,0,.89.89.88.88,0,0,0,.4-.1Zm8.13,0h-4.49l-.39-16a1,1,0,0,0,.38.08.89.89,0,0,0,.89-.89.91.91,0,0,0-.25-.62h3.21a.88.88,0,0,0-.26.62.89.89,0,0,0,.89.89,1,1,0,0,0,.41-.1Zm8.13,0h-4.48l-.39-16a.87.87,0,0,0,.39.1.89.89,0,0,0,.89-.89.91.91,0,0,0-.25-.62h3.2a.91.91,0,0,0-.25.62.89.89,0,0,0,.89.89.86.86,0,0,0,.39-.09Z" transform="translate(-160 -329.71)"/><rect class="cls-1" x="5.83" y="51.09" width="41.98" height="1.57"/><rect class="cls-1" x="4.6" y="53.83" width="44.45" height="1.57"/></svg>